<svg xmlns="http://www.w3.org/2000/svg" version="1.1" xmlns:xlink="http://www.w3.org/1999/xlink" xmlns:svgjs="http://svgjs.dev/svgjs" width="640" height="640"><svg width="640" height="640" viewBox="0 0 640 640" fill="none" xmlns="http://www.w3.org/2000/svg">
<rect width="640" height="640" rx="60" fill="#212830"></rect>
<path d="M464.008 161H480.007V176.9H464.008V161ZM480.007 161H496.006V176.9H480.007V161ZM496.006 161H512.006V176.9H496.006V161ZM512.006 161H528.005V176.9H512.006V161ZM528.005 161H544.004V176.9H528.005V161ZM544.004 161H560.003V176.9H544.004V161ZM560.003 161H576.002V176.9H560.003V161ZM560.003 176.9H576.002V192.8H560.003V176.9ZM576.002 176.9H592.001V192.8H576.002V176.9ZM592.001 176.9H608.001V192.8H592.001V176.9ZM592.001 192.8H608.001V208.7H592.001V192.8ZM576.002 192.8H592.001V208.7H576.002V192.8ZM560.003 192.8H576.002V208.7H560.003V192.8ZM544.004 192.8H560.003V208.7H544.004V192.8ZM528.005 192.8H544.004V208.7H528.005V192.8ZM512.006 192.8H528.005V208.7H512.006V192.8ZM496.006 192.8H512.006V208.7H496.006V192.8ZM480.007 192.8H496.006V208.7H480.007V192.8ZM464.008 192.8H480.007V208.7H464.008V192.8ZM448.009 192.8H464.008V208.7H448.009V192.8ZM432.01 192.8H448.009V208.7H432.01V192.8ZM432.01 176.9H448.009V192.8H432.01V176.9ZM448.009 176.9H464.008V192.8H448.009V176.9ZM464.008 176.9H480.007V192.8H464.008V176.9ZM480.007 176.9H496.006V192.8H480.007V176.9ZM496.006 176.9H512.006V192.8H496.006V176.9ZM512.006 176.9H528.005V192.8H512.006V176.9ZM528.005 176.9H544.004V192.8H528.005V176.9ZM544.004 176.9H560.003V192.8H544.004V176.9ZM608.001 208.7H624V224.6H608.001V208.7ZM592.001 208.7H608.001V224.6H592.001V208.7ZM576.002 208.7H592.001V224.6H576.002V208.7ZM560.003 208.7H576.002V224.6H560.003V208.7ZM544.004 208.7H560.003V224.6H544.004V208.7ZM528.005 208.7H544.004V224.6H528.005V208.7ZM512.006 208.7H528.005V224.6H512.006V208.7ZM496.006 208.7H512.006V224.6H496.006V208.7ZM480.007 208.7H496.006V224.6H480.007V208.7ZM464.008 208.7H480.007V224.6H464.008V208.7ZM448.009 208.7H464.008V224.6H448.009V208.7ZM432.01 208.7H448.009V224.6H432.01V208.7ZM416.01 208.7H432.01V224.6H416.01V208.7ZM416.01 224.6H432.01V240.5H416.01V224.6ZM432.01 224.6H448.009V240.5H432.01V224.6ZM448.009 224.6H464.008V240.5H448.009V224.6ZM464.008 224.6H480.007V240.5H464.008V224.6ZM480.007 224.6H496.006V240.5H480.007V224.6ZM544.004 224.6H560.003V240.5H544.004V224.6ZM560.003 224.6H576.002V240.5H560.003V224.6ZM576.002 224.6H592.001V240.5H576.002V224.6ZM592.001 224.6H608.001V240.5H592.001V224.6ZM608.001 224.6H624V240.5H608.001V224.6ZM608.001 240.5H624V256.4H608.001V240.5ZM608.001 256.4H624V272.3H608.001V256.4ZM608.001 272.3H624V288.2H608.001V272.3ZM592.001 272.3H608.001V288.2H592.001V272.3ZM576.002 272.3H592.001V288.2H576.002V272.3ZM560.003 272.3H576.002V288.2H560.003V272.3ZM560.003 256.4H576.002V272.3H560.003V256.4ZM560.003 240.5H576.002V256.4H560.003V240.5ZM576.002 240.5H592.001V256.4H576.002V240.5ZM592.001 240.5H608.001V256.4H592.001V240.5ZM592.001 256.4H608.001V272.3H592.001V256.4ZM576.002 256.4H592.001V272.3H576.002V256.4ZM544.004 272.3H560.003V288.2H544.004V272.3ZM592.001 288.2H608.001V304.1H592.001V288.2ZM576.002 288.2H592.001V304.1H576.002V288.2ZM560.003 288.2H576.002V304.1H560.003V288.2ZM544.004 288.2H560.003V304.1H544.004V288.2ZM528.005 288.2H544.004V304.1H528.005V288.2ZM512.006 288.2H528.005V304.1H512.006V288.2ZM496.006 288.2H512.006V304.1H496.006V288.2ZM480.007 288.2H496.006V304.1H480.007V288.2ZM464.008 288.2H480.007V304.1H464.008V288.2ZM448.009 288.2H464.008V304.1H448.009V288.2ZM432.01 288.2H448.009V304.1H432.01V288.2ZM432.01 272.3H448.009V288.2H432.01V272.3ZM416.01 272.3H432.01V288.2H416.01V272.3ZM416.01 256.4H432.01V272.3H416.01V256.4ZM416.01 240.5H432.01V256.4H416.01V240.5ZM432.01 240.5H448.009V256.4H432.01V240.5ZM448.009 240.5H464.008V256.4H448.009V240.5ZM464.008 240.5H480.007V256.4H464.008V240.5ZM464.008 256.4H480.007V272.3H464.008V256.4ZM464.008 272.3H480.007V288.2H464.008V272.3ZM480.007 272.3H496.006V288.2H480.007V272.3ZM448.009 272.3H464.008V288.2H448.009V272.3ZM448.009 256.4H464.008V272.3H448.009V256.4ZM432.01 256.4H448.009V272.3H432.01V256.4ZM448.009 304.1H464.008V320H448.009V304.1ZM464.008 304.1H480.007V320H464.008V304.1ZM480.007 304.1H496.006V320H480.007V304.1ZM496.006 304.1H512.006V320H496.006V304.1ZM512.006 304.1H528.005V320H512.006V304.1ZM528.005 304.1H544.004V320H528.005V304.1ZM544.004 304.1H560.003V320H544.004V304.1ZM560.003 304.1H576.002V320H560.003V304.1ZM576.002 304.1H592.001V320H576.002V304.1ZM592.001 320H608.001V335.9H592.001V320ZM576.002 320H592.001V335.9H576.002V320ZM560.003 320H576.002V335.9H560.003V320ZM544.004 320H560.003V335.9H544.004V320ZM528.005 320H544.004V335.9H528.005V320ZM512.006 320H528.005V335.9H512.006V320ZM496.006 320H512.006V335.9H496.006V320ZM480.007 320H496.006V335.9H480.007V320ZM464.008 320H480.007V335.9H464.008V320ZM448.009 320H464.008V335.9H448.009V320ZM432.01 320H448.009V335.9H432.01V320ZM480.007 335.9H496.006V351.8H480.007V335.9ZM464.008 335.9H480.007V351.8H464.008V335.9ZM448.009 335.9H464.008V351.8H448.009V335.9ZM432.01 335.9H448.009V351.8H432.01V335.9ZM416.01 335.9H432.01V351.8H416.01V335.9ZM416.01 351.8H432.01V367.7H416.01V351.8ZM416.01 367.7H432.01V383.6H416.01V367.7ZM432.01 367.7H448.009V383.6H432.01V367.7ZM448.009 367.7H464.008V383.6H448.009V367.7ZM464.008 351.8H480.007V367.7H464.008V351.8ZM448.009 351.8H464.008V367.7H448.009V351.8ZM432.01 351.8H448.009V367.7H432.01V351.8ZM464.008 367.7H480.007V383.6H464.008V367.7ZM464.008 383.6H480.007V399.5H464.008V383.6ZM464.008 399.5H480.007V415.4H464.008V399.5ZM480.007 399.5H496.006V415.4H480.007V399.5ZM448.009 399.5H464.008V415.4H448.009V399.5ZM448.009 415.4H464.008V431.3H448.009V415.4ZM432.01 415.4H448.009V431.3H432.01V415.4ZM416.01 415.4H432.01V431.3H416.01V415.4ZM416.01 399.5H432.01V415.4H416.01V399.5ZM416.01 383.6H432.01V399.5H416.01V383.6ZM432.01 383.6H448.009V399.5H432.01V383.6ZM448.009 383.6H464.008V399.5H448.009V383.6ZM432.01 399.5H448.009V415.4H432.01V399.5ZM432.01 447.2H448.009V463.1H432.01V447.2ZM432.01 431.3H448.009V447.2H432.01V431.3ZM448.009 431.3H464.008V447.2H448.009V431.3ZM448.009 447.2H464.008V463.1H448.009V447.2ZM464.008 431.3H480.007V447.2H464.008V431.3ZM464.008 415.4H480.007V431.3H464.008V415.4ZM480.007 415.4H496.006V431.3H480.007V415.4ZM480.007 431.3H496.006V447.2H480.007V431.3ZM480.007 447.2H496.006V463.1H480.007V447.2ZM464.008 447.2H480.007V463.1H464.008V447.2ZM464.008 463.1H480.007V479H464.008V463.1ZM480.007 463.1H496.006V479H480.007V463.1ZM496.006 463.1H512.006V479H496.006V463.1ZM512.006 463.1H528.005V479H512.006V463.1ZM528.005 463.1H544.004V479H528.005V463.1ZM544.004 463.1H560.003V479H544.004V463.1ZM560.003 463.1H576.002V479H560.003V463.1ZM560.003 447.2H576.002V463.1H560.003V447.2ZM576.002 447.2H592.001V463.1H576.002V447.2ZM592.001 447.2H608.001V463.1H592.001V447.2ZM592.001 431.3H608.001V447.2H592.001V431.3ZM576.002 431.3H592.001V447.2H576.002V431.3ZM560.003 431.3H576.002V447.2H560.003V431.3ZM576.002 415.4H592.001V431.3H576.002V415.4ZM592.001 415.4H608.001V431.3H592.001V415.4ZM608.001 415.4H624V431.3H608.001V415.4ZM608.001 399.5H624V415.4H608.001V399.5ZM608.001 383.6H624V399.5H608.001V383.6ZM608.001 367.7H624V383.6H608.001V367.7ZM608.001 351.8H624V367.7H608.001V351.8ZM608.001 335.9H624V351.8H608.001V335.9ZM592.001 335.9H608.001V351.8H592.001V335.9ZM576.002 335.9H592.001V351.8H576.002V335.9ZM560.003 335.9H576.002V351.8H560.003V335.9ZM544.004 335.9H560.003V351.8H544.004V335.9ZM560.003 351.8H576.002V367.7H560.003V351.8ZM560.003 367.7H576.002V383.6H560.003V367.7ZM560.003 383.6H576.002V399.5H560.003V383.6ZM560.003 399.5H576.002V415.4H560.003V399.5ZM544.004 399.5H560.003V415.4H544.004V399.5ZM544.004 415.4H560.003V431.3H544.004V415.4ZM560.003 415.4H576.002V431.3H560.003V415.4ZM528.005 415.4H544.004V431.3H528.005V415.4ZM512.006 415.4H528.005V431.3H512.006V415.4ZM496.006 415.4H512.006V431.3H496.006V415.4ZM496.006 431.3H512.006V447.2H496.006V431.3ZM496.006 447.2H512.006V463.1H496.006V447.2ZM512.006 447.2H528.005V463.1H512.006V447.2ZM512.006 431.3H528.005V447.2H512.006V431.3ZM528.005 431.3H544.004V447.2H528.005V431.3ZM528.005 447.2H544.004V463.1H528.005V447.2ZM544.004 447.2H560.003V463.1H544.004V447.2ZM544.004 431.3H560.003V447.2H544.004V431.3ZM576.002 399.5H592.001V415.4H576.002V399.5ZM592.001 399.5H608.001V415.4H592.001V399.5ZM576.002 383.6H592.001V399.5H576.002V383.6ZM592.001 383.6H608.001V399.5H592.001V383.6ZM592.001 367.7H608.001V383.6H592.001V367.7ZM592.001 351.8H608.001V367.7H592.001V351.8ZM576.002 351.8H592.001V367.7H576.002V351.8ZM576.002 367.7H592.001V383.6H576.002V367.7Z" fill="white" fill-opacity="0.8"></path>
<path d="M304.11 463.1H320.109V479H304.11V463.1ZM320.109 463.1H336.109V479H320.109V463.1ZM336.109 463.1H352.108V479H336.109V463.1ZM352.108 463.1H368.107V479H352.108V463.1ZM352.108 447.2H368.107V463.1H352.108V447.2ZM336.109 447.2H352.108V463.1H336.109V447.2ZM320.109 447.2H336.109V463.1H320.109V447.2ZM304.11 447.2H320.109V463.1H304.11V447.2ZM304.11 431.3H320.109V447.2H304.11V431.3ZM320.109 415.4H336.109V431.3H320.109V415.4ZM336.109 415.4H352.108V431.3H336.109V415.4ZM352.108 415.4H368.107V431.3H352.108V415.4ZM352.108 431.3H368.107V447.2H352.108V431.3ZM336.109 431.3H352.108V447.2H336.109V431.3ZM320.109 431.3H336.109V447.2H320.109V431.3ZM304.11 415.4H320.109V431.3H304.11V415.4ZM304.11 399.5H320.109V415.4H304.11V399.5ZM320.109 383.6H336.109V399.5H320.109V383.6ZM336.109 383.6H352.108V399.5H336.109V383.6ZM336.109 399.5H352.108V415.4H336.109V399.5ZM352.108 399.5H368.107V415.4H352.108V399.5ZM352.108 383.6H368.107V399.5H352.108V383.6ZM352.108 367.7H368.107V383.6H352.108V367.7ZM336.109 367.7H352.108V383.6H336.109V367.7ZM336.109 351.8H352.108V367.7H336.109V351.8ZM320.109 351.8H336.109V367.7H320.109V351.8ZM304.11 351.8H320.109V367.7H304.11V351.8ZM304.11 367.7H320.109V383.6H304.11V367.7ZM304.11 383.6H320.109V399.5H304.11V383.6ZM320.109 399.5H336.109V415.4H320.109V399.5ZM320.109 367.7H336.109V383.6H320.109V367.7ZM304.11 335.9H320.109V351.8H304.11V335.9ZM304.11 320H320.109V335.9H304.11V320ZM304.11 304.1H320.109V320H304.11V304.1ZM304.11 288.2H320.109V304.1H304.11V288.2ZM304.11 272.3H320.109V288.2H304.11V272.3ZM304.11 256.4H320.109V272.3H304.11V256.4ZM304.11 240.5H320.109V256.4H304.11V240.5ZM304.11 224.6H320.109V240.5H304.11V224.6ZM304.11 208.7H320.109V224.6H304.11V208.7ZM304.11 192.8H320.109V208.7H304.11V192.8ZM304.11 176.9H320.109V192.8H304.11V176.9ZM304.11 161H320.109V176.9H304.11V161ZM320.109 161H336.109V176.9H320.109V161ZM336.109 161H352.108V176.9H336.109V161ZM352.108 161H368.107V176.9H352.108V161ZM352.108 176.9H368.107V192.8H352.108V176.9ZM352.108 192.8H368.107V208.7H352.108V192.8ZM336.109 208.7H352.108V224.6H336.109V208.7ZM336.109 224.6H352.108V240.5H336.109V224.6ZM336.109 240.5H352.108V256.4H336.109V240.5ZM336.109 256.4H352.108V272.3H336.109V256.4ZM352.108 272.3H368.107V288.2H352.108V272.3ZM352.108 288.2H368.107V304.1H352.108V288.2ZM352.108 304.1H368.107V320H352.108V304.1ZM352.108 320H368.107V335.9H352.108V320ZM352.108 335.9H368.107V351.8H352.108V335.9ZM352.108 351.8H368.107V367.7H352.108V351.8ZM352.108 256.4H368.107V272.3H352.108V256.4ZM352.108 240.5H368.107V256.4H352.108V240.5ZM352.108 224.6H368.107V240.5H352.108V224.6ZM352.108 208.7H368.107V224.6H352.108V208.7ZM336.109 176.9H352.108V192.8H336.109V176.9ZM320.109 176.9H336.109V192.8H320.109V176.9ZM320.109 192.8H336.109V208.7H320.109V192.8ZM320.109 208.7H336.109V224.6H320.109V208.7ZM320.109 224.6H336.109V240.5H320.109V224.6ZM320.109 240.5H336.109V256.4H320.109V240.5ZM336.109 192.8H352.108V208.7H336.109V192.8ZM336.109 272.3H352.108V288.2H336.109V272.3ZM320.109 272.3H336.109V288.2H320.109V272.3ZM320.109 288.2H336.109V304.1H320.109V288.2ZM320.109 304.1H336.109V320H320.109V304.1ZM320.109 320H336.109V335.9H320.109V320ZM336.109 335.9H352.108V351.8H336.109V335.9ZM336.109 320H352.108V335.9H336.109V320ZM336.109 304.1H352.108V320H336.109V304.1ZM336.109 288.2H352.108V304.1H336.109V288.2ZM320.109 256.4H336.109V272.3H320.109V256.4ZM320.109 335.9H336.109V351.8H320.109V335.9ZM288.111 161H304.11V176.9H288.111V161ZM272.112 161H288.111V176.9H272.112V161ZM256.113 161H272.112V176.9H256.113V161ZM256.113 208.7H272.112V224.6H256.113V208.7ZM272.112 208.7H288.111V224.6H272.112V208.7ZM288.111 208.7H304.11V224.6H288.111V208.7ZM288.111 192.8H304.11V208.7H288.111V192.8ZM288.111 176.9H304.11V192.8H288.111V176.9ZM272.112 176.9H288.111V192.8H272.112V176.9ZM256.113 176.9H272.112V192.8H256.113V176.9ZM256.113 192.8H272.112V208.7H256.113V192.8ZM272.112 192.8H288.111V208.7H272.112V192.8Z" fill="white" fill-opacity="0.8"></path>
<path d="M191.991 161H207.99V176.9H191.991V161ZM175.992 161H191.991V176.9H175.992V161ZM159.993 161H175.992V176.9H159.993V161ZM143.993 161H159.993V176.9H143.993V161ZM143.993 176.9H159.993V192.8H143.993V176.9ZM159.993 176.9H175.992V192.8H159.993V176.9ZM175.992 176.9H191.991V192.8H175.992V176.9ZM191.991 176.9H207.99V192.8H191.991V176.9ZM191.991 192.8H207.99V208.7H191.991V192.8ZM175.992 192.8H191.991V208.7H175.992V192.8ZM159.993 192.8H175.992V208.7H159.993V192.8ZM143.993 192.8H159.993V208.7H143.993V192.8ZM127.994 192.8H143.993V208.7H127.994V192.8ZM127.994 176.9H143.993V192.8H127.994V176.9ZM111.995 192.8H127.994V208.7H111.995V192.8ZM111.995 208.7H127.994V224.6H111.995V208.7ZM95.9959 208.7H111.995V224.6H95.9959V208.7ZM127.994 208.7H143.993V224.6H127.994V208.7ZM143.993 208.7H159.993V224.6H143.993V208.7ZM159.993 208.7H175.992V224.6H159.993V208.7ZM175.992 208.7H191.991V224.6H175.992V208.7ZM191.991 208.7H207.99V224.6H191.991V208.7ZM191.991 224.6H207.99V240.5H191.991V224.6ZM175.992 224.6H191.991V240.5H175.992V224.6ZM159.993 224.6H175.992V240.5H159.993V224.6ZM143.993 224.6H159.993V240.5H143.993V224.6ZM127.994 224.6H143.993V240.5H127.994V224.6ZM111.995 224.6H127.994V240.5H111.995V224.6ZM95.9959 224.6H111.995V240.5H95.9959V224.6ZM79.9967 224.6H95.9959V240.5H79.9967V224.6ZM79.9967 240.5H95.9959V256.4H79.9967V240.5ZM63.9975 240.5H79.9967V256.4H63.9975V240.5ZM95.9959 240.5H111.995V256.4H95.9959V240.5ZM111.995 240.5H127.994V256.4H111.995V240.5ZM127.994 240.5H143.993V256.4H127.994V240.5ZM143.993 240.5H159.993V256.4H143.993V240.5ZM159.993 240.5H175.992V256.4H159.993V240.5ZM175.992 240.5H191.991V256.4H175.992V240.5ZM191.991 240.5H207.99V256.4H191.991V240.5ZM191.991 256.4H207.99V272.3H191.991V256.4ZM191.991 272.3H207.99V288.2H191.991V272.3ZM175.992 272.3H191.991V288.2H175.992V272.3ZM159.993 272.3H175.992V288.2H159.993V272.3ZM159.993 256.4H175.992V272.3H159.993V256.4ZM143.993 256.4H159.993V272.3H143.993V256.4ZM143.993 272.3H159.993V288.2H143.993V272.3ZM175.992 256.4H191.991V272.3H175.992V256.4ZM47.9984 256.4H63.9975V272.3H47.9984V256.4ZM63.9975 256.4H79.9967V272.3H63.9975V256.4ZM79.9967 256.4H95.9959V272.3H79.9967V256.4ZM95.9959 256.4H111.995V272.3H95.9959V256.4ZM111.995 256.4H127.994V272.3H111.995V256.4ZM95.9959 272.3H111.995V288.2H95.9959V272.3ZM79.9967 272.3H95.9959V288.2H79.9967V272.3ZM79.9967 288.2H95.9959V304.1H79.9967V288.2ZM63.9975 288.2H79.9967V304.1H63.9975V288.2ZM47.9984 272.3H63.9975V288.2H47.9984V272.3ZM31.9992 272.3H47.9984V288.2H31.9992V272.3ZM63.9975 272.3H79.9967V288.2H63.9975V272.3ZM47.9984 288.2H63.9975V304.1H47.9984V288.2ZM31.9992 288.2H47.9984V304.1H31.9992V288.2ZM16 288.2H31.9992V304.1H16V288.2ZM16 304.1H31.9992V320H16V304.1ZM16 320H31.9992V335.9H16V320ZM16 335.9H31.9992V351.8H16V335.9ZM16 351.8H31.9992V367.7H16V351.8ZM16 367.7H31.9992V383.6H16V367.7ZM16 383.6H31.9992V399.5H16V383.6ZM16 399.5H31.9992V415.4H16V399.5ZM31.9992 399.5H47.9984V415.4H31.9992V399.5ZM31.9992 383.6H47.9984V399.5H31.9992V383.6ZM47.9984 383.6H63.9975V399.5H47.9984V383.6ZM47.9984 367.7H63.9975V383.6H47.9984V367.7ZM47.9984 351.8H63.9975V367.7H47.9984V351.8ZM47.9984 335.9H63.9975V351.8H47.9984V335.9ZM63.9975 335.9H79.9967V351.8H63.9975V335.9ZM63.9975 320H79.9967V335.9H63.9975V320ZM63.9975 304.1H79.9967V320H63.9975V304.1ZM47.9984 304.1H63.9975V320H47.9984V304.1ZM31.9992 320H47.9984V335.9H31.9992V320ZM31.9992 335.9H47.9984V351.8H31.9992V335.9ZM47.9984 320H63.9975V335.9H47.9984V320ZM31.9992 304.1H47.9984V320H31.9992V304.1ZM31.9992 351.8H47.9984V367.7H31.9992V351.8ZM31.9992 367.7H47.9984V383.6H31.9992V367.7ZM63.9975 367.7H79.9967V383.6H63.9975V367.7ZM63.9975 351.8H79.9967V367.7H63.9975V351.8ZM79.9967 351.8H95.9959V367.7H79.9967V351.8ZM95.9959 351.8H111.995V367.7H95.9959V351.8ZM111.995 351.8H127.994V367.7H111.995V351.8ZM127.994 351.8H143.993V367.7H127.994V351.8ZM143.993 351.8H159.993V367.7H143.993V351.8ZM143.993 335.9H159.993V351.8H143.993V335.9ZM143.993 320H159.993V335.9H143.993V320ZM143.993 288.2H159.993V304.1H143.993V288.2ZM143.993 304.1H159.993V320H143.993V304.1ZM191.991 288.2H207.99V304.1H191.991V288.2ZM191.991 304.1H207.99V320H191.991V304.1ZM191.991 320H207.99V335.9H191.991V320ZM191.991 335.9H207.99V351.8H191.991V335.9ZM191.991 351.8H207.99V367.7H191.991V351.8ZM191.991 367.7H207.99V383.6H191.991V367.7ZM191.991 383.6H207.99V399.5H191.991V383.6ZM191.991 399.5H207.99V415.4H191.991V399.5ZM191.991 415.4H207.99V431.3H191.991V415.4ZM191.991 431.3H207.99V447.2H191.991V431.3ZM191.991 447.2H207.99V463.1H191.991V447.2ZM191.991 463.1H207.99V479H191.991V463.1ZM175.992 463.1H191.991V479H175.992V463.1ZM159.993 463.1H175.992V479H159.993V463.1ZM143.993 463.1H159.993V479H143.993V463.1ZM143.993 447.2H159.993V463.1H143.993V447.2ZM143.993 431.3H159.993V447.2H143.993V431.3ZM143.993 415.4H159.993V431.3H143.993V415.4ZM143.993 399.5H159.993V415.4H143.993V399.5ZM159.993 399.5H175.992V415.4H159.993V399.5ZM159.993 415.4H175.992V431.3H159.993V415.4ZM175.992 415.4H191.991V431.3H175.992V415.4ZM175.992 431.3H191.991V447.2H175.992V431.3ZM175.992 447.2H191.991V463.1H175.992V447.2ZM159.993 447.2H175.992V463.1H159.993V447.2ZM159.993 431.3H175.992V447.2H159.993V431.3ZM175.992 399.5H191.991V415.4H175.992V399.5ZM127.994 399.5H143.993V415.4H127.994V399.5ZM111.995 399.5H127.994V415.4H111.995V399.5ZM95.9959 399.5H111.995V415.4H95.9959V399.5ZM79.9967 399.5H95.9959V415.4H79.9967V399.5ZM63.9975 399.5H79.9967V415.4H63.9975V399.5ZM47.9984 399.5H63.9975V415.4H47.9984V399.5ZM63.9975 383.6H79.9967V399.5H63.9975V383.6ZM79.9967 383.6H95.9959V399.5H79.9967V383.6ZM95.9959 383.6H111.995V399.5H95.9959V383.6ZM111.995 383.6H127.994V399.5H111.995V383.6ZM127.994 383.6H143.993V399.5H127.994V383.6ZM143.993 383.6H159.993V399.5H143.993V383.6ZM159.993 383.6H175.992V399.5H159.993V383.6ZM175.992 383.6H191.991V399.5H175.992V383.6ZM175.992 367.7H191.991V383.6H175.992V367.7ZM159.993 367.7H175.992V383.6H159.993V367.7ZM143.993 367.7H159.993V383.6H143.993V367.7ZM127.994 367.7H143.993V383.6H127.994V367.7ZM111.995 367.7H127.994V383.6H111.995V367.7ZM95.9959 367.7H111.995V383.6H95.9959V367.7ZM79.9967 367.7H95.9959V383.6H79.9967V367.7ZM175.992 351.8H191.991V367.7H175.992V351.8ZM175.992 335.9H191.991V351.8H175.992V335.9ZM175.992 320H191.991V335.9H175.992V320ZM175.992 304.1H191.991V320H175.992V304.1ZM159.993 304.1H175.992V320H159.993V304.1ZM159.993 288.2H175.992V304.1H159.993V288.2ZM175.992 288.2H191.991V304.1H175.992V288.2ZM159.993 320H175.992V335.9H159.993V320ZM159.993 335.9H175.992V351.8H159.993V335.9ZM159.993 351.8H175.992V367.7H159.993V351.8Z" fill="white" fill-opacity="0.8"></path>
</svg><style>@media (prefers-color-scheme: light) { :root { filter: none; } }
@media (prefers-color-scheme: dark) { :root { filter: none; } }
</style></svg>