<svg width="16" height="16" viewBox="0 0 16 16" fill="none" xmlns="http://www.w3.org/2000/svg">
<path d="M13.6001 5.615V6.0125H14.0001V6.8075H13.6001V7.205H12.4002V6.8075H12.0002V6.0125H12.4002V5.615H13.6001Z" fill="#212830"/>
<path d="M13.6001 8.3975V8.795H14.0001V9.9875H13.6001V10.385H12.4002V9.9875H12.0002V8.795H12.4002V8.3975H13.6001Z" fill="#212830"/>
<path d="M3.19986 6.41H3.59984V8.795H1.99992V7.6025H2.3999V7.205H2.79988V6.8075H3.19986V6.41Z" fill="#212830"/>
<path fill-rule="evenodd" clip-rule="evenodd" d="M1.5 0C0.671573 0 0 0.671573 0 1.5V14.5C0 15.3284 0.671573 16 1.5 16H14.5C15.3284 16 16 15.3284 16 14.5V1.5C16 0.671573 15.3284 0 14.5 0H1.5ZM11.6002 4.025V4.4225H10.8002V5.2175H10.4003V7.205H10.8002V7.6025H11.2002V8H10.8002V8.3975H10.4003V10.7825H10.8002V11.5775H11.6002V11.975H14.4001V11.5775H15.2V10.7825H15.6V8.3975H15.2V8H14.8V7.6025H15.2V7.205H15.6V5.2175H15.2V4.4225H14.4001V4.025H11.6002ZM7.60276 11.975V5.615H6.40282V4.025H9.20267V11.975H7.60276ZM5.19975 4.025H3.59984V4.4225H3.19986V4.82H2.79988V5.2175H2.3999V5.615H1.99992V6.0125H1.59994V6.41H1.19996V6.8075H0.79998V7.205H0.4V10.385H3.59984V11.975H5.19975V4.025Z" fill="#212830"/>
</svg>
