<svg width="16" height="17" fill="none" xmlns="http://www.w3.org/2000/svg"><g clip-path="url(#prefix__clip0_16_1739)"><path d="M13.057 8.48a.777.777 0 00-.251-.574L5.93 1.17a.807.807 0 00-.573-.226.777.777 0 00-.79.79c0 .217.087.417.225.565l6.32 6.18-6.32 6.18a.808.808 0 00-.225.565c0 .451.347.79.79.79a.78.78 0 00.573-.234l6.875-6.728a.791.791 0 00.251-.573z" fill="currentColor"/></g><defs><clipPath id="prefix__clip0_16_1739"><path fill="currentColor" transform="translate(0 .5)" d="M0 0h16v16H0z"/></clipPath></defs></svg>