<svg width="64" height="64" fill="none" xmlns="http://www.w3.org/2000/svg">
    <path
        d="M46.766 18.68a34.918 34.918 0 00-8.71-2.68 23.913 23.913 0 00-1.117 2.268 32.435 32.435 0 00-9.667 0A24.058 24.058 0 0026.157 16a35.163 35.163 0 00-8.718 2.687c-5.512 8.156-7.007 16.11-6.26 23.95A35.11 35.11 0 0021.863 48a25.805 25.805 0 002.288-3.69 22.721 22.721 0 01-3.604-1.72c.303-.219.598-.445.884-.664a25.095 25.095 0 0021.36 0c.289.236.584.462.883.664a22.814 22.814 0 01-3.61 1.724A25.578 25.578 0 0042.352 48a34.952 34.952 0 0010.69-5.36c.877-9.093-1.497-16.973-6.276-23.96zM25.097 37.815c-2.082 0-3.802-1.89-3.802-4.214 0-2.325 1.66-4.231 3.795-4.231 2.136 0 3.843 1.906 3.806 4.23-.036 2.325-1.677 4.215-3.799 4.215zm14.027 0c-2.085 0-3.799-1.89-3.799-4.214 0-2.325 1.66-4.231 3.8-4.231 2.138 0 3.832 1.906 3.795 4.23-.036 2.325-1.674 4.215-3.796 4.215z"
        fill="currentColor" />
</svg>