<svg width="24" height="24" fill="none" xmlns="http://www.w3.org/2000/svg">
    <path
        d="M2 4.223c0 4.034 1.924 6.544 5.79 7.736a7.065 7.065 0 001.63 1.514v4.2H8.21c-1.377 0-2.09.791-2.09 2.09v1.905c0 .44.342.742.752.742h9.354c.41 0 .752-.303.752-.742v-1.905c0-1.299-.722-2.09-2.099-2.09h-1.201v-4.19a7.156 7.156 0 001.64-1.524c3.857-1.201 5.78-3.702 5.78-7.736 0-1.006-.624-1.621-1.669-1.621h-1.894C17.379 1.606 16.675 1 15.495 1h-7.89c-1.172 0-1.885.596-2.041 1.602H3.67C2.625 2.602 2 3.217 2 4.223zm1.396.137c0-.156.117-.283.283-.283h1.836V5.99c0 1.495.39 2.882.996 4.073-2.04-1.025-3.115-2.92-3.115-5.704zM6.99 6.265V3.09a.59.59 0 01.616-.615h7.89a.59.59 0 01.614.615v3.175c0 3.477-3.202 6.593-4.56 6.593-1.357 0-4.56-3.116-4.56-6.593zm.606 14.67v-1.172c0-.37.244-.615.615-.615h6.669c.38 0 .625.244.625.615v1.172h-7.91zm3.3-3.262v-3.448c.235.069.45.098.654.098.205 0 .42-.03.655-.098v3.448h-1.309zm5.693-7.609a8.997 8.997 0 00.996-4.073V4.077h1.835c.166 0 .284.127.284.283 0 2.784-1.075 4.679-3.115 5.704z"
        fill="currentColor" />
</svg>