<svg width="24" height="24" fill="none" xmlns="http://www.w3.org/2000/svg">
    <path
        d="M2 4.223c0 4.033 1.933 6.552 5.79 7.734a8.288 8.288 0 001.953 1.758v4.248H8.21c-1.377 0-2.09.79-2.09 2.09v1.611c0 .44.342.742.752.742h9.354c.41 0 .752-.302.752-.742v-1.611c0-1.3-.722-2.09-2.099-2.09h-1.523v-4.248a8.068 8.068 0 001.943-1.758c3.866-1.182 5.8-3.701 5.8-7.734 0-1.006-.625-1.621-1.67-1.621h-1.894C17.379 1.605 16.675 1 15.495 1h-7.89c-1.172 0-1.885.596-2.041 1.602H3.67c-1.045 0-1.67.615-1.67 1.62zm1.396.136c0-.156.117-.283.283-.283h1.836V5.99c0 1.494.39 2.881.996 4.082-2.04-1.035-3.115-2.93-3.115-5.713zm13.182 5.713a8.949 8.949 0 001.006-4.082V4.076h1.835c.166 0 .284.127.284.283 0 2.784-1.075 4.678-3.125 5.713z"
        fill="currentColor" />
</svg>