<svg width="64" height="64" viewBox="0 0 64 64" fill="none" xmlns="http://www.w3.org/2000/svg">
<path d="M46.7658 18.68C43.9918 17.4099 41.0633 16.509 38.0552 16C37.6435 16.7359 37.2711 17.493 36.9394 18.2682C33.7351 17.7853 30.4766 17.7853 27.2723 18.2682C26.9404 17.4931 26.5679 16.736 26.1565 16C23.1464 16.5132 20.216 17.4164 17.4392 18.6866C11.9265 26.8427 10.4321 34.7962 11.1793 42.6368C14.4076 45.022 18.0211 46.8361 21.8626 48C22.7276 46.8366 23.493 45.6024 24.1507 44.3105C22.9014 43.8439 21.6957 43.2683 20.5475 42.5903C20.8497 42.3711 21.1453 42.1453 21.4309 41.9261C24.772 43.4974 28.4187 44.312 32.1108 44.312C35.803 44.312 39.4496 43.4974 42.7908 41.9261C43.0797 42.1619 43.3752 42.3877 43.6741 42.5903C42.5236 43.2694 41.3157 43.8461 40.0643 44.3138C40.7212 45.6051 41.4867 46.8383 42.3524 48C46.1971 46.8407 49.8134 45.0276 53.0423 42.6401C53.919 33.5475 51.5446 25.6671 46.7658 18.68ZM25.0971 37.8149C23.0149 37.8149 21.2947 35.9253 21.2947 33.6007C21.2947 31.276 22.9551 29.3699 25.0905 29.3699C27.2258 29.3699 28.9327 31.276 28.8962 33.6007C28.8597 35.9253 27.2191 37.8149 25.0971 37.8149ZM39.1245 37.8149C37.039 37.8149 35.3254 35.9253 35.3254 33.6007C35.3254 31.276 36.9859 29.3699 39.1245 29.3699C41.2631 29.3699 42.9568 31.276 42.9203 33.6007C42.8837 35.9253 41.2465 37.8149 39.1245 37.8149Z" fill="white"/>
</svg>
